<svg width="981.14375px" height="125.6px" xmlns="http://www.w3.org/2000/svg" viewBox="-240.57187499999998 12.200000000000003 981.14375 125.6" style="background: rgba(0, 0, 0, 0);" preserveAspectRatio="xMidYMid"><defs><filter id="editing-extrude-glow"><feFlood flood-color="#333333" result="flood-1"></feFlood><feMorphology operator="erode" radius="1" in="SourceAlpha" result="erode"></feMorphology><feComposite operator="in" in="flood-1" in2="erode" result="comp1"></feComposite><feConvolveMatrix order="0,0" divisor="1" in="comp1" result="convolve" kernelMatrix=""></feConvolveMatrix><feOffset dx="0" dy="0" in="convolve" result="extrude"></feOffset><feComposite operator="in" in="flood-1" in2="extrude" result="comp-extrude"></feComposite><feFlood flood-color="#000000" result="flood-2"></feFlood><feComposite operator="in" in="flood-2" in2="SourceAlpha" result="comp2"></feComposite><feMorphology operator="dilate" radius="1" in="comp2" result="dilate"></feMorphology><feOffset dx="0" dy="0" in="dilate" result="offset"></feOffset><feGaussianBlur in="offset" stdDeviation="5.8" result="blur"></feGaussianBlur><feComponentTransfer in="blur" result="shadow"><feFuncA type="linear" slope="0.8" intercept="-0.2"></feFuncA></feComponentTransfer><feMerge><feMergeNode in="shadow"></feMergeNode><feMergeNode in="comp-extrude"></feMergeNode><feMergeNode in="SourceGraphic"></feMergeNode></feMerge></filter></defs><g filter="url(#editing-extrude-glow)"><g transform="translate(-105.13502931594849, 105.36499977111816)"><path d="M4.48 0L4.48-43.33L4.48-43.33Q4.93-43.33 6.53-43.36L6.53-43.36L6.53-43.36Q8.13-43.39 10.11-43.39L10.11-43.39L10.11-43.39Q12.10-43.39 14.08-43.42L14.08-43.42L14.08-43.42Q16.06-43.46 17.34-43.46L17.34-43.46L17.34-43.46Q25.15-43.46 28.86-39.97L28.86-39.97L28.86-39.97Q32.58-36.48 32.58-30.40L32.58-30.40L32.58-30.40Q32.58-27.46 31.55-24.99L31.55-24.99L31.55-24.99Q30.53-22.53 28.51-20.74L28.51-20.74L28.51-20.74Q26.50-18.94 23.52-17.95L23.52-17.95L23.52-17.95Q20.54-16.96 16.58-16.96L16.58-16.96L12.10-16.96L12.10 0L4.48 0ZM12.10-37.95L12.10-22.66L17.02-22.66L17.02-22.66Q21.06-22.66 22.78-24.77L22.78-24.77L22.78-24.77Q24.51-26.88 24.51-30.14L24.51-30.14L24.51-30.14Q24.51-31.62 24.13-33.02L24.13-33.02L24.13-33.02Q23.74-34.43 22.82-35.55L22.82-35.55L22.82-35.55Q21.89-36.67 20.32-37.34L20.32-37.34L20.32-37.34Q18.75-38.02 16.38-38.02L16.38-38.02L16.38-38.02Q14.98-38.02 13.92-38.02L13.92-38.02L13.92-38.02Q12.86-38.02 12.10-37.95L12.10-37.95ZM34.88-43.33L65.09-43.33L64.13-37.57L53.38-37.57L53.38 0L45.82 0L45.82-37.57L34.88-37.57L34.88-43.33ZM66.82-8.96L66.82-8.96Q69.06-8.96 70.24-7.62L70.24-7.62L70.24-7.62Q71.42-6.27 71.42-4.16L71.42-4.16L71.42-4.16Q71.42-2.11 70.21-0.70L70.21-0.70L70.21-0.70Q68.99 0.70 66.62 0.70L66.62 0.70L66.62 0.70Q64.38 0.70 63.17-0.70L63.17-0.70L63.17-0.70Q61.95-2.11 61.95-4.03L61.95-4.03L61.95-4.03Q61.95-6.08 63.17-7.52L63.17-7.52L63.17-7.52Q64.38-8.96 66.82-8.96L66.82-8.96ZM99.46 14.27L96.51 9.22L96.51 9.22Q99.39 7.81 100.93 6.11L100.93 6.11L100.93 6.11Q102.46 4.42 103.20 2.66L103.20 2.66L103.20 2.66Q103.94 0.90 104.03-0.86L104.03-0.86L104.03-0.86Q104.13-2.62 104.13-4.16L104.13-4.16L104.13-5.06L104.13-5.06Q102.66-2.37 99.84-0.93L99.84-0.93L99.84-0.93Q97.02 0.51 93.31 0.51L93.31 0.51L93.31 0.51Q89.28 0.51 86.40-1.02L86.40-1.02L86.40-1.02Q83.52-2.56 81.66-5.41L81.66-5.41L81.66-5.41Q79.81-8.26 78.94-12.22L78.94-12.22L78.94-12.22Q78.08-16.19 78.08-21.06L78.08-21.06L78.08-21.06Q78.08-26.05 79.23-30.24L79.23-30.24L79.23-30.24Q80.38-34.43 82.72-37.47L82.72-37.47L82.72-37.47Q85.06-40.51 88.61-42.21L88.61-42.21L88.61-42.21Q92.16-43.90 97.02-43.90L97.02-43.90L97.02-43.90Q101.31-43.90 104.22-42.50L104.22-42.50L104.22-42.50Q107.14-41.09 108.80-39.36L108.80-39.36L105.09-34.50L105.09-34.50Q103.42-36.16 101.02-37.09L101.02-37.09L101.02-37.09Q98.62-38.02 96.13-38.02L96.13-38.02L96.13-38.02Q93.38-38.02 91.52-36.74L91.52-36.74L91.52-36.74Q89.66-35.46 88.51-33.25L88.51-33.25L88.51-33.25Q87.36-31.04 86.85-28.06L86.85-28.06L86.85-28.06Q86.34-25.09 86.34-21.70L86.34-21.70L86.34-21.70Q86.34-18.05 86.82-15.07L86.82-15.07L86.82-15.07Q87.30-12.10 88.29-9.95L88.29-9.95L88.29-9.95Q89.28-7.81 90.88-6.62L90.88-6.62L90.88-6.62Q92.48-5.44 94.78-5.44L94.78-5.44L94.78-5.44Q96.26-5.44 97.79-6.11L97.79-6.11L97.79-6.11Q99.33-6.78 100.58-8.03L100.58-8.03L100.58-8.03Q101.82-9.28 102.59-11.07L102.59-11.07L102.59-11.07Q103.36-12.86 103.36-15.17L103.36-15.17L103.36-20.99L110.85-20.99L110.85-1.73L110.85-1.73Q110.85 2.18 109.79 4.80L109.79 4.80L109.79 4.80Q108.74 7.42 107.10 9.18L107.10 9.18L107.10 9.18Q105.47 10.94 103.46 12.13L103.46 12.13L103.46 12.13Q101.44 13.31 99.46 14.27L99.46 14.27ZM124.99 0.26L124.99 0.26Q121.34 0.26 119.62-1.76L119.62-1.76L119.62-1.76Q117.89-3.78 117.89-6.91L117.89-6.91L117.89-45.12L125.18-46.46L125.18-7.62L125.18-7.62Q125.18-6.14 125.76-5.57L125.76-5.57L125.76-5.57Q126.34-4.99 127.42-4.99L127.42-4.99L127.42-4.99Q128.06-4.99 128.67-5.06L128.67-5.06L128.67-5.06Q129.28-5.12 129.79-5.25L129.79-5.25L129.79-5.25Q130.37-5.38 130.82-5.50L130.82-5.50L131.71-0.90L131.71-0.90Q130.88-0.58 129.86-0.32L129.86-0.32L129.86-0.32Q128.96-0.06 127.74 0.10L127.74 0.10L127.74 0.10Q126.53 0.26 124.99 0.26L124.99 0.26ZM148.54-32.64L148.54-32.64Q155.90-32.64 159.23-28.29L159.23-28.29L159.23-28.29Q162.56-23.94 162.56-16.32L162.56-16.32L162.56-16.32Q162.56-12.74 161.66-9.63L161.66-9.63L161.66-9.63Q160.77-6.53 158.94-4.26L158.94-4.26L158.94-4.26Q157.12-1.98 154.37-0.67L154.37-0.67L154.37-0.67Q151.62 0.64 147.97 0.64L147.97 0.64L147.97 0.64Q144.32 0.64 141.66-0.48L141.66-0.48L141.66-0.48Q139.01-1.60 137.28-3.71L137.28-3.71L137.28-3.71Q135.55-5.82 134.75-8.83L134.75-8.83L134.75-8.83Q133.95-11.84 133.95-15.62L133.95-15.62L133.95-15.62Q133.95-19.26 134.85-22.37L134.85-22.37L134.85-22.37Q135.74-25.47 137.57-27.74L137.57-27.74L137.57-27.74Q139.39-30.02 142.14-31.33L142.14-31.33L142.14-31.33Q144.90-32.64 148.54-32.64L148.54-32.64ZM147.90-27.26L147.90-27.26Q146.05-27.26 144.86-26.43L144.86-26.43L144.86-26.43Q143.68-25.60 143.01-24.10L143.01-24.10L143.01-24.10Q142.34-22.59 142.08-20.58L142.08-20.58L142.08-20.58Q141.82-18.56 141.82-16.26L141.82-16.26L141.82-16.26Q141.82-13.89 142.11-11.78L142.11-11.78L142.11-11.78Q142.40-9.66 143.17-8.10L143.17-8.10L143.17-8.10Q143.94-6.53 145.25-5.63L145.25-5.63L145.25-5.63Q146.56-4.74 148.61-4.74L148.61-4.74L148.61-4.74Q150.46-4.74 151.65-5.57L151.65-5.57L151.65-5.57Q152.83-6.40 153.50-7.90L153.50-7.90L153.50-7.90Q154.18-9.41 154.43-11.39L154.43-11.39L154.43-11.39Q154.69-13.38 154.69-15.68L154.69-15.68L154.69-15.68Q154.69-18.05 154.40-20.16L154.40-20.16L154.40-20.16Q154.11-22.27 153.34-23.87L153.34-23.87L153.34-23.87Q152.58-25.47 151.26-26.37L151.26-26.37L151.26-26.37Q149.95-27.26 147.90-27.26L147.90-27.26ZM168.96-1.47L168.96-45.12L176.26-46.40L176.26-26.88L176.26-26.88Q177.41-29.50 179.49-30.94L179.49-30.94L179.49-30.94Q181.57-32.38 184.83-32.38L184.83-32.38L184.83-32.38Q187.84-32.38 190.05-31.26L190.05-31.26L190.05-31.26Q192.26-30.14 193.73-28.06L193.73-28.06L193.73-28.06Q195.20-25.98 195.90-23.04L195.90-23.04L195.90-23.04Q196.61-20.10 196.61-16.51L196.61-16.51L196.61-16.51Q196.61-12.86 195.49-9.76L195.49-9.76L195.49-9.76Q194.37-6.66 192.35-4.42L192.35-4.42L192.35-4.42Q190.34-2.18 187.52-0.90L187.52-0.90L187.52-0.90Q184.70 0.38 181.31 0.38L181.31 0.38L181.31 0.38Q179.39 0.38 177.22 0.10L177.22 0.10L177.22 0.10Q175.04-0.19 173.18-0.51L173.18-0.51L173.18-0.51Q171.07-0.90 168.96-1.47L168.96-1.47ZM183.62-27.26L183.62-27.26Q182.02-27.26 180.67-26.18L180.67-26.18L180.67-26.18Q179.33-25.09 178.34-23.30L178.34-23.30L178.34-23.30Q177.34-21.50 176.80-19.26L176.80-19.26L176.80-19.26Q176.26-17.02 176.26-14.66L176.26-14.66L176.26-5.38L176.26-5.38Q176.83-5.25 178.11-4.99L178.11-4.99L178.11-4.99Q179.39-4.74 180.48-4.74L180.48-4.74L180.48-4.74Q182.85-4.74 184.45-5.57L184.45-5.57L184.45-5.57Q186.05-6.40 187.01-7.87L187.01-7.87L187.01-7.87Q187.97-9.34 188.35-11.39L188.35-11.39L188.35-11.39Q188.74-13.44 188.74-15.87L188.74-15.87L188.74-15.87Q188.74-18.11 188.61-20.16L188.61-20.16L188.61-20.16Q188.48-22.21 187.94-23.81L187.94-23.81L187.94-23.81Q187.39-25.41 186.37-26.34L186.37-26.34L186.37-26.34Q185.34-27.26 183.62-27.26L183.62-27.26ZM228.74-30.53L228.74-15.42L228.74-15.42Q228.74-11.58 229.22-8.99L229.22-8.99L229.22-8.99Q229.70-6.40 230.27-4.80L230.27-4.80L230.27-4.80Q230.98-2.88 231.81-1.79L231.81-1.79L226.11 0.51L226.11 0.51Q225.28-0.32 224.58-1.47L224.58-1.47L224.58-1.47Q224-2.50 223.49-3.94L223.49-3.94L223.49-3.94Q222.98-5.38 222.85-7.36L222.85-7.36L222.85-7.36Q221.76-3.52 219.36-1.57L219.36-1.57L219.36-1.57Q216.96 0.38 212.86 0.38L212.86 0.38L212.86 0.38Q209.86 0.38 207.65-0.74L207.65-0.74L207.65-0.74Q205.44-1.86 203.97-3.94L203.97-3.94L203.97-3.94Q202.50-6.02 201.79-8.96L201.79-8.96L201.79-8.96Q201.09-11.90 201.09-15.49L201.09-15.49L201.09-15.49Q201.09-19.14 202.21-22.24L202.21-22.24L202.21-22.24Q203.33-25.34 205.34-27.58L205.34-27.58L205.34-27.58Q207.36-29.82 210.18-31.10L210.18-31.10L210.18-31.10Q212.99-32.38 216.38-32.38L216.38-32.38L216.38-32.38Q218.30-32.38 220.38-32.10L220.38-32.10L220.38-32.10Q222.46-31.81 224.26-31.49L224.26-31.49L224.26-31.49Q226.05-31.17 227.30-30.88L227.30-30.88L227.30-30.88Q228.54-30.59 228.74-30.53L228.74-30.53ZM214.08-4.74L214.08-4.74Q215.68-4.74 217.02-5.82L217.02-5.82L217.02-5.82Q218.37-6.91 219.36-8.67L219.36-8.67L219.36-8.67Q220.35-10.43 220.90-12.70L220.90-12.70L220.90-12.70Q221.44-14.98 221.44-17.34L221.44-17.34L221.44-26.56L221.44-26.56Q220.80-26.75 219.52-27.01L219.52-27.01L219.52-27.01Q218.24-27.26 217.22-27.26L217.22-27.26L217.22-27.26Q214.78-27.26 213.22-26.43L213.22-26.43L213.22-26.43Q211.65-25.60 210.69-24.13L210.69-24.13L210.69-24.13Q209.73-22.66 209.34-20.61L209.34-20.61L209.34-20.61Q208.96-18.56 208.96-16.13L208.96-16.13L208.96-16.13Q208.96-13.89 209.09-11.84L209.09-11.84L209.09-11.84Q209.22-9.79 209.76-8.19L209.76-8.19L209.76-8.19Q210.30-6.59 211.33-5.66L211.33-5.66L211.33-5.66Q212.35-4.74 214.08-4.74L214.08-4.74ZM244.10 0.26L244.10 0.26Q240.45 0.26 238.72-1.76L238.72-1.76L238.72-1.76Q236.99-3.78 236.99-6.91L236.99-6.91L236.99-45.12L244.29-46.46L244.29-7.62L244.29-7.62Q244.29-6.14 244.86-5.57L244.86-5.57L244.86-5.57Q245.44-4.99 246.53-4.99L246.53-4.99L246.53-4.99Q247.17-4.99 247.78-5.06L247.78-5.06L247.78-5.06Q248.38-5.12 248.90-5.25L248.90-5.25L248.90-5.25Q249.47-5.38 249.92-5.50L249.92-5.50L250.82-0.90L250.82-0.90Q249.98-0.58 248.96-0.32L248.96-0.32L248.96-0.32Q248.06-0.06 246.85 0.10L246.85 0.10L246.85 0.10Q245.63 0.26 244.10 0.26L244.10 0.26ZM272.58 0L272.58-43.33L272.58-43.33Q273.02-43.33 274.62-43.36L274.62-43.36L274.62-43.36Q276.22-43.39 278.21-43.39L278.21-43.39L278.21-43.39Q280.19-43.39 282.18-43.42L282.18-43.42L282.18-43.42Q284.16-43.46 285.44-43.46L285.44-43.46L285.44-43.46Q292.86-43.46 296.74-40.51L296.74-40.51L296.74-40.51Q300.61-37.57 300.61-32.19L300.61-32.19L300.61-32.19Q300.61-29.06 298.88-26.56L298.88-26.56L298.88-26.56Q297.15-24.06 294.08-22.53L294.08-22.53L294.08-22.53Q297.92-21.06 299.94-18.37L299.94-18.37L299.94-18.37Q301.95-15.68 301.95-12.16L301.95-12.16L301.95-12.16Q301.95-6.66 297.79-3.30L297.79-3.30L297.79-3.30Q293.63 0.06 285.18 0.06L285.18 0.06L285.18 0.06Q283.46 0.06 281.47 0.06L281.47 0.06L281.47 0.06Q279.49 0.06 277.70 0.03L277.70 0.03L277.70 0.03Q275.90 0 274.53 0L274.53 0L274.53 0Q273.15 0 272.58 0L272.58 0ZM280.19-19.39L280.19-5.44L285.70-5.44L285.70-5.44Q290.05-5.44 291.94-7.39L291.94-7.39L291.94-7.39Q293.82-9.34 293.82-12.29L293.82-12.29L293.82-12.29Q293.82-13.63 293.41-14.91L293.41-14.91L293.41-14.91Q292.99-16.19 291.97-17.22L291.97-17.22L291.97-17.22Q290.94-18.24 289.25-18.85L289.25-18.85L289.25-18.85Q287.55-19.46 284.99-19.46L284.99-19.46L284.99-19.46Q283.46-19.46 282.27-19.46L282.27-19.46L282.27-19.46Q281.09-19.46 280.19-19.39L280.19-19.39ZM280.19-37.95L280.19-24.90L285.12-24.90L285.12-24.90Q289.15-24.90 290.88-26.75L290.88-26.75L290.88-26.75Q292.61-28.61 292.61-31.30L292.61-31.30L292.61-31.30Q292.61-32.51 292.22-33.73L292.22-33.73L292.22-33.73Q291.84-34.94 290.91-35.90L290.91-35.90L290.91-35.90Q289.98-36.86 288.42-37.44L288.42-37.44L288.42-37.44Q286.85-38.02 284.48-38.02L284.48-38.02L284.48-38.02Q283.07-38.02 282.02-38.02L282.02-38.02L282.02-38.02Q280.96-38.02 280.19-37.95L280.19-37.95ZM315.14 0.26L315.14 0.26Q311.74 0.26 309.95-1.76L309.95-1.76L309.95-1.76Q308.16-3.78 308.16-6.98L308.16-6.98L308.16-31.87L315.46-31.87L315.46-7.62L315.46-7.62Q315.46-6.14 315.90-5.63L315.90-5.63L315.90-5.63Q316.35-5.12 317.25-5.12L317.25-5.12L317.25-5.12Q317.50-5.12 317.79-5.12L317.79-5.12L317.79-5.12Q318.08-5.12 318.34-5.18L318.34-5.18L318.34-5.18Q318.59-5.18 318.91-5.25L318.91-5.25L319.68-0.64L319.68-0.64Q319.23-0.38 318.53-0.19L318.53-0.19L318.53-0.19Q317.95 0 317.09 0.13L317.09 0.13L317.09 0.13Q316.22 0.26 315.14 0.26L315.14 0.26ZM311.94-46.08L311.94-46.08Q313.98-46.08 315.07-44.86L315.07-44.86L315.07-44.86Q316.16-43.65 316.16-41.73L316.16-41.73L316.16-41.73Q316.16-39.81 315.04-38.53L315.04-38.53L315.04-38.53Q313.92-37.25 311.74-37.25L311.74-37.25L311.74-37.25Q309.70-37.25 308.58-38.50L308.58-38.50L308.58-38.50Q307.46-39.74 307.46-41.54L307.46-41.54L307.46-41.54Q307.46-43.52 308.58-44.80L308.58-44.80L308.58-44.80Q309.70-46.08 311.94-46.08L311.94-46.08ZM351.87 0L344.64 0L344.64-20.67L344.64-20.67Q344.64-23.36 343.68-24.99L343.68-24.99L343.68-24.99Q342.72-26.62 340.42-26.62L340.42-26.62L340.42-26.62Q338.94-26.62 337.57-25.89L337.57-25.89L337.57-25.89Q336.19-25.15 335.10-23.74L335.10-23.74L335.10-23.74Q334.02-22.34 333.34-20.32L333.34-20.32L333.34-20.32Q332.67-18.30 332.67-15.81L332.67-15.81L332.67 0L325.38 0L325.38-16.13L325.38-16.13Q325.38-19.97 324.86-22.56L324.86-22.56L324.86-22.56Q324.35-25.15 323.78-26.75L323.78-26.75L323.78-26.75Q323.07-28.61 322.24-29.76L322.24-29.76L328.00-32.06L328.00-32.06Q328.64-31.36 329.28-30.34L329.28-30.34L329.28-30.34Q329.79-29.44 330.30-28.13L330.30-28.13L330.30-28.13Q330.82-26.82 331.14-25.15L331.14-25.15L331.14-25.15Q332.80-28.99 335.94-30.69L335.94-30.69L335.94-30.69Q339.07-32.38 342.53-32.38L342.53-32.38L342.53-32.38Q347.46-32.38 349.66-29.41L349.66-29.41L349.66-29.41Q351.87-26.43 351.87-21.38L351.87-21.38L351.87 0ZM356.42-26.69L356.42-31.87L362.18-31.87L363.46-39.36L369.47-40.70L369.47-31.87L377.34-31.87L376.45-26.69L369.47-26.69L369.47-7.74L369.47-7.74Q369.47-6.08 370.37-5.60L370.37-5.60L370.37-5.60Q371.26-5.12 372.35-5.12L372.35-5.12L372.35-5.12Q373.25-5.12 374.14-5.25L374.14-5.25L374.14-5.25Q375.04-5.38 375.74-5.57L375.74-5.57L375.74-5.57Q376.58-5.76 377.34-6.02L377.34-6.02L378.56-1.22L377.98-1.02L377.98-1.02Q377.41-0.77 376.29-0.48L376.29-0.48L376.29-0.48Q375.17-0.19 373.66 0.03L373.66 0.03L373.66 0.03Q372.16 0.26 370.37 0.26L370.37 0.26L370.37 0.26Q368.58 0.26 367.07-0.13L367.07-0.13L367.07-0.13Q365.57-0.51 364.48-1.38L364.48-1.38L364.48-1.38Q363.39-2.24 362.78-3.58L362.78-3.58L362.78-3.58Q362.18-4.93 362.18-6.91L362.18-6.91L362.18-26.69L356.42-26.69ZM407.81-30.53L407.81-15.42L407.81-15.42Q407.81-11.58 408.29-8.99L408.29-8.99L408.29-8.99Q408.77-6.40 409.34-4.80L409.34-4.80L409.34-4.80Q410.05-2.88 410.88-1.79L410.88-1.79L405.18 0.51L405.18 0.51Q404.35-0.32 403.65-1.47L403.65-1.47L403.65-1.47Q403.07-2.50 402.56-3.94L402.56-3.94L402.56-3.94Q402.05-5.38 401.92-7.36L401.92-7.36L401.92-7.36Q400.83-3.52 398.43-1.57L398.43-1.57L398.43-1.57Q396.03 0.38 391.94 0.38L391.94 0.38L391.94 0.38Q388.93 0.38 386.72-0.74L386.72-0.74L386.72-0.74Q384.51-1.86 383.04-3.94L383.04-3.94L383.04-3.94Q381.57-6.02 380.86-8.96L380.86-8.96L380.86-8.96Q380.16-11.90 380.16-15.49L380.16-15.49L380.16-15.49Q380.16-19.14 381.28-22.24L381.28-22.24L381.28-22.24Q382.40-25.34 384.42-27.58L384.42-27.58L384.42-27.58Q386.43-29.82 389.25-31.10L389.25-31.10L389.25-31.10Q392.06-32.38 395.46-32.38L395.46-32.38L395.46-32.38Q397.38-32.38 399.46-32.10L399.46-32.10L399.46-32.10Q401.54-31.81 403.33-31.49L403.33-31.49L403.33-31.49Q405.12-31.17 406.37-30.88L406.37-30.88L406.37-30.88Q407.62-30.59 407.81-30.53L407.81-30.53ZM393.15-4.74L393.15-4.74Q394.75-4.74 396.10-5.82L396.10-5.82L396.10-5.82Q397.44-6.91 398.43-8.67L398.43-8.67L398.43-8.67Q399.42-10.43 399.97-12.70L399.97-12.70L399.97-12.70Q400.51-14.98 400.51-17.34L400.51-17.34L400.51-26.56L400.51-26.56Q399.87-26.75 398.59-27.01L398.59-27.01L398.59-27.01Q397.31-27.26 396.29-27.26L396.29-27.26L396.29-27.26Q393.86-27.26 392.29-26.43L392.29-26.43L392.29-26.43Q390.72-25.60 389.76-24.13L389.76-24.13L389.76-24.13Q388.80-22.66 388.42-20.61L388.42-20.61L388.42-20.61Q388.03-18.56 388.03-16.13L388.03-16.13L388.03-16.13Q388.03-13.89 388.16-11.84L388.16-11.84L388.16-11.84Q388.29-9.79 388.83-8.19L388.83-8.19L388.83-8.19Q389.38-6.59 390.40-5.66L390.40-5.66L390.40-5.66Q391.42-4.74 393.15-4.74L393.15-4.74ZM442.18 0L434.94 0L434.94-20.67L434.94-20.67Q434.94-23.36 433.98-24.99L433.98-24.99L433.98-24.99Q433.02-26.62 430.72-26.62L430.72-26.62L430.72-26.62Q429.25-26.62 427.87-25.89L427.87-25.89L427.87-25.89Q426.50-25.15 425.41-23.74L425.41-23.74L425.41-23.74Q424.32-22.34 423.65-20.32L423.65-20.32L423.65-20.32Q422.98-18.30 422.98-15.81L422.98-15.81L422.98 0L415.68 0L415.68-16.13L415.68-16.13Q415.68-19.97 415.17-22.56L415.17-22.56L415.17-22.56Q414.66-25.15 414.08-26.75L414.08-26.75L414.08-26.75Q413.38-28.61 412.54-29.76L412.54-29.76L418.30-32.06L418.30-32.06Q418.94-31.36 419.58-30.34L419.58-30.34L419.58-30.34Q420.10-29.44 420.61-28.13L420.61-28.13L420.61-28.13Q421.12-26.82 421.44-25.15L421.44-25.15L421.44-25.15Q423.10-28.99 426.24-30.69L426.24-30.69L426.24-30.69Q429.38-32.38 432.83-32.38L432.83-32.38L432.83-32.38Q437.76-32.38 439.97-29.41L439.97-29.41L439.97-29.41Q442.18-26.43 442.18-21.38L442.18-21.38L442.18 0ZM453.25 11.20L455.04 5.63L455.04 5.63Q456.00 6.02 457.09 6.43L457.09 6.43L457.09 6.43Q458.18 6.85 459.39 7.23L459.39 7.23L459.39 7.23Q460.61 7.62 461.86 7.87L461.86 7.87L461.86 7.87Q463.10 8.13 464.32 8.13L464.32 8.13L464.32 8.13Q467.90 8.13 469.50 5.98L469.50 5.98L469.50 5.98Q471.10 3.84 471.10 0.45L471.10 0.45L471.10 0.45Q471.10-2.88 469.70-6.27L469.70-6.27L469.70-6.27Q468.61-3.01 466.27-1.31L466.27-1.31L466.27-1.31Q463.94 0.38 460.10 0.38L460.10 0.38L460.10 0.38Q457.09 0.38 454.88-0.74L454.88-0.74L454.88-0.74Q452.67-1.86 451.20-3.94L451.20-3.94L451.20-3.94Q449.73-6.02 449.02-8.96L449.02-8.96L449.02-8.96Q448.32-11.90 448.32-15.49L448.32-15.49L448.32-15.49Q448.32-19.14 449.44-22.24L449.44-22.24L449.44-22.24Q450.56-25.34 452.58-27.58L452.58-27.58L452.58-27.58Q454.59-29.82 457.41-31.10L457.41-31.10L457.41-31.10Q460.22-32.38 463.62-32.38L463.62-32.38L463.62-32.38Q465.15-32.38 466.91-32.19L466.91-32.19L466.91-32.19Q468.67-32 470.37-31.71L470.37-31.71L470.37-31.71Q472.06-31.42 473.57-31.10L473.57-31.10L473.57-31.10Q475.07-30.78 476.16-30.53L476.16-30.53L475.84-12.93L475.84-12.93Q475.78-11.01 476.06-9.41L476.06-9.41L476.06-9.41Q476.35-7.81 476.74-6.24L476.74-6.24L476.74-6.24Q477.12-4.67 477.44-3.07L477.44-3.07L477.44-3.07Q477.76-1.47 477.76 0.45L477.76 0.45L477.76 0.45Q477.76 7.23 474.30 10.56L474.30 10.56L474.30 10.56Q470.85 13.89 464.96 13.89L464.96 13.89L464.96 13.89Q463.04 13.89 461.12 13.54L461.12 13.54L461.12 13.54Q459.20 13.18 457.57 12.74L457.57 12.74L457.57 12.74Q455.94 12.29 454.78 11.84L454.78 11.84L454.78 11.84Q453.63 11.39 453.25 11.20L453.25 11.20ZM461.31-4.74L461.31-4.74Q462.85-4.74 464.16-5.76L464.16-5.76L464.16-5.76Q465.47-6.78 466.50-8.48L466.50-8.48L466.50-8.48Q467.52-10.18 468.10-12.35L468.10-12.35L468.10-12.35Q468.67-14.53 468.67-16.83L468.67-16.83L468.67-26.56L468.67-26.56Q468.03-26.75 466.75-27.01L466.75-27.01L466.75-27.01Q465.47-27.26 464.45-27.26L464.45-27.26L464.45-27.26Q462.02-27.26 460.45-26.43L460.45-26.43L460.45-26.43Q458.88-25.60 457.92-24.13L457.92-24.13L457.92-24.13Q456.96-22.66 456.58-20.61L456.58-20.61L456.58-20.61Q456.19-18.56 456.19-16.13L456.19-16.13L456.19-16.13Q456.19-13.89 456.32-11.84L456.32-11.84L456.32-11.84Q456.45-9.79 456.99-8.19L456.99-8.19L456.99-8.19Q457.54-6.59 458.56-5.66L458.56-5.66L458.56-5.66Q459.58-4.74 461.31-4.74L461.31-4.74ZM532.35-16.64L525.18 0L519.81 0L512.58-16.45L512.58-16.45Q512.26-17.15 511.78-18.37L511.78-18.37L511.78-18.37Q511.30-19.58 510.72-21.06L510.72-21.06L510.72-21.06Q510.14-22.53 509.50-24.16L509.50-24.16L509.50-24.16Q508.86-25.79 508.29-27.46L508.29-27.46L508.29-27.46Q508.29-25.79 508.26-24.16L508.26-24.16L508.26-24.16Q508.22-22.53 508.16-21.09L508.16-21.09L508.16-21.09Q508.10-19.65 508.06-18.53L508.06-18.53L508.06-18.53Q508.03-17.41 508.03-16.77L508.03-16.77L507.39 0L500.22 0L502.78-43.46L508.74-43.46L519.68-16.32L519.68-16.32Q520.26-14.85 520.99-13.12L520.99-13.12L520.99-13.12Q521.73-11.39 522.37-9.73L522.37-9.73L522.37-9.73Q523.01-11.39 523.71-13.09L523.71-13.09L523.71-13.09Q524.42-14.78 525.06-16.32L525.06-16.32L536.06-43.46L541.89-43.46L544.45 0L537.34 0L536.64-16.58L536.64-16.58Q536.58-18.18 536.48-21.15L536.48-21.15L536.48-21.15Q536.38-24.13 536.32-27.20L536.32-27.20L536.32-27.20Q535.74-25.60 535.14-24L535.14-24L535.14-24Q534.53-22.40 534.02-20.99L534.02-20.99L534.02-20.99Q533.50-19.58 533.06-18.43L533.06-18.43L533.06-18.43Q532.61-17.28 532.35-16.64L532.35-16.64ZM577.79-30.53L577.79-15.42L577.79-15.42Q577.79-11.58 578.27-8.99L578.27-8.99L578.27-8.99Q578.75-6.40 579.33-4.80L579.33-4.80L579.33-4.80Q580.03-2.88 580.86-1.79L580.86-1.79L575.17 0.51L575.17 0.51Q574.34-0.32 573.63-1.47L573.63-1.47L573.63-1.47Q573.06-2.50 572.54-3.94L572.54-3.94L572.54-3.94Q572.03-5.38 571.90-7.36L571.90-7.36L571.90-7.36Q570.82-3.52 568.42-1.57L568.42-1.57L568.42-1.57Q566.02 0.38 561.92 0.38L561.92 0.38L561.92 0.38Q558.91 0.38 556.70-0.74L556.70-0.74L556.70-0.74Q554.50-1.86 553.02-3.94L553.02-3.94L553.02-3.94Q551.55-6.02 550.85-8.96L550.85-8.96L550.85-8.96Q550.14-11.90 550.14-15.49L550.14-15.49L550.14-15.49Q550.14-19.14 551.26-22.24L551.26-22.24L551.26-22.24Q552.38-25.34 554.40-27.58L554.40-27.58L554.40-27.58Q556.42-29.82 559.23-31.10L559.23-31.10L559.23-31.10Q562.05-32.38 565.44-32.38L565.44-32.38L565.44-32.38Q567.36-32.38 569.44-32.10L569.44-32.10L569.44-32.10Q571.52-31.81 573.31-31.49L573.31-31.49L573.31-31.49Q575.10-31.17 576.35-30.88L576.35-30.88L576.35-30.88Q577.60-30.59 577.79-30.53L577.79-30.53ZM563.14-4.74L563.14-4.74Q564.74-4.74 566.08-5.82L566.08-5.82L566.08-5.82Q567.42-6.91 568.42-8.67L568.42-8.67L568.42-8.67Q569.41-10.43 569.95-12.70L569.95-12.70L569.95-12.70Q570.50-14.98 570.50-17.34L570.50-17.34L570.50-26.56L570.50-26.56Q569.86-26.75 568.58-27.01L568.58-27.01L568.58-27.01Q567.30-27.26 566.27-27.26L566.27-27.26L566.27-27.26Q563.84-27.26 562.27-26.43L562.27-26.43L562.27-26.43Q560.70-25.60 559.74-24.13L559.74-24.13L559.74-24.13Q558.78-22.66 558.40-20.61L558.40-20.61L558.40-20.61Q558.02-18.56 558.02-16.13L558.02-16.13L558.02-16.13Q558.02-13.89 558.14-11.84L558.14-11.84L558.14-11.84Q558.27-9.79 558.82-8.19L558.82-8.19L558.82-8.19Q559.36-6.59 560.38-5.66L560.38-5.66L560.38-5.66Q561.41-4.74 563.14-4.74L563.14-4.74ZM612.16 0L604.93 0L604.93-20.67L604.93-20.67Q604.93-23.36 603.97-24.99L603.97-24.99L603.97-24.99Q603.01-26.62 600.70-26.62L600.70-26.62L600.70-26.62Q599.23-26.62 597.86-25.89L597.86-25.89L597.86-25.89Q596.48-25.15 595.39-23.74L595.39-23.74L595.39-23.74Q594.30-22.34 593.63-20.32L593.63-20.32L593.63-20.32Q592.96-18.30 592.96-15.81L592.96-15.81L592.96 0L585.66 0L585.66-16.13L585.66-16.13Q585.66-19.97 585.15-22.56L585.15-22.56L585.15-22.56Q584.64-25.15 584.06-26.75L584.06-26.75L584.06-26.75Q583.36-28.61 582.53-29.76L582.53-29.76L588.29-32.06L588.29-32.06Q588.93-31.36 589.57-30.34L589.57-30.34L589.57-30.34Q590.08-29.44 590.59-28.13L590.59-28.13L590.59-28.13Q591.10-26.82 591.42-25.15L591.42-25.15L591.42-25.15Q593.09-28.99 596.22-30.69L596.22-30.69L596.22-30.69Q599.36-32.38 602.82-32.38L602.82-32.38L602.82-32.38Q607.74-32.38 609.95-29.41L609.95-29.41L609.95-29.41Q612.16-26.43 612.16-21.38L612.16-21.38L612.16 0ZM649.02-1.79L643.33 0.51L643.33 0.51Q643.20 0.45 642.75-0.10L642.75-0.10L642.75-0.10Q642.30-0.64 641.76-1.60L641.76-1.60L641.76-1.60Q641.22-2.56 640.70-4L640.70-4L640.70-4Q640.19-5.44 640.06-7.36L640.06-7.36L640.06-7.36Q638.98-3.52 636.58-1.57L636.58-1.57L636.58-1.57Q634.18 0.38 630.08 0.38L630.08 0.38L630.08 0.38Q627.07 0.38 624.86-0.74L624.86-0.74L624.86-0.74Q622.66-1.86 621.18-3.94L621.18-3.94L621.18-3.94Q619.71-6.02 619.01-8.96L619.01-8.96L619.01-8.96Q618.30-11.90 618.30-15.49L618.30-15.49L618.30-15.49Q618.30-19.14 619.42-22.24L619.42-22.24L619.42-22.24Q620.54-25.34 622.56-27.58L622.56-27.58L622.56-27.58Q624.58-29.82 627.39-31.10L627.39-31.10L627.39-31.10Q630.21-32.38 633.60-32.38L633.60-32.38L633.60-32.38Q634.75-32.38 636.06-32.26L636.06-32.26L636.06-32.26Q637.38-32.13 638.66-31.94L638.66-31.94L638.66-46.40L645.95-45.12L645.95-15.42L645.95-15.42Q645.95-11.58 646.40-9.06L646.40-9.06L646.40-9.06Q646.85-6.53 647.42-4.96L647.42-4.96L647.42-4.96Q648.00-3.39 648.48-2.69L648.48-2.69L648.48-2.69Q648.96-1.98 649.02-1.79L649.02-1.79ZM631.30-4.80L631.30-4.80Q632.90-4.80 634.24-5.89L634.24-5.89L634.24-5.89Q635.58-6.98 636.58-8.74L636.58-8.74L636.58-8.74Q637.57-10.50 638.11-12.74L638.11-12.74L638.11-12.74Q638.66-14.98 638.66-17.34L638.66-17.34L638.66-26.56L638.66-26.56Q638.02-26.75 636.74-27.01L636.74-27.01L636.74-27.01Q635.46-27.26 634.43-27.26L634.43-27.26L634.43-27.26Q632.00-27.26 630.43-26.43L630.43-26.43L630.43-26.43Q628.86-25.60 627.90-24.13L627.90-24.13L627.90-24.13Q626.94-22.66 626.56-20.61L626.56-20.61L626.56-20.61Q626.18-18.56 626.18-16.13L626.18-16.13L626.18-16.13Q626.18-13.89 626.30-11.84L626.30-11.84L626.30-11.84Q626.43-9.79 626.98-8.22L626.98-8.22L626.98-8.22Q627.52-6.66 628.54-5.73L628.54-5.73L628.54-5.73Q629.57-4.80 631.30-4.80L631.30-4.80ZM661.25 0.26L661.25 0.26Q657.86 0.26 656.06-1.76L656.06-1.76L656.06-1.76Q654.27-3.78 654.27-6.98L654.27-6.98L654.27-31.87L661.57-31.87L661.57-7.62L661.57-7.62Q661.57-6.14 662.02-5.63L662.02-5.63L662.02-5.63Q662.46-5.12 663.36-5.12L663.36-5.12L663.36-5.12Q663.62-5.12 663.90-5.12L663.90-5.12L663.90-5.12Q664.19-5.12 664.45-5.18L664.45-5.18L664.45-5.18Q664.70-5.18 665.02-5.25L665.02-5.25L665.79-0.64L665.79-0.64Q665.34-0.38 664.64-0.19L664.64-0.19L664.64-0.19Q664.06 0 663.20 0.13L663.20 0.13L663.20 0.13Q662.34 0.26 661.25 0.26L661.25 0.26ZM658.05-46.08L658.05-46.08Q660.10-46.08 661.18-44.86L661.18-44.86L661.18-44.86Q662.27-43.65 662.27-41.73L662.27-41.73L662.27-41.73Q662.27-39.81 661.15-38.53L661.15-38.53L661.15-38.53Q660.03-37.25 657.86-37.25L657.86-37.25L657.86-37.25Q655.81-37.25 654.69-38.50L654.69-38.50L654.69-38.50Q653.57-39.74 653.57-41.54L653.57-41.54L653.57-41.54Q653.57-43.52 654.69-44.80L654.69-44.80L654.69-44.80Q655.81-46.08 658.05-46.08L658.05-46.08ZM685.18-25.22L685.18-25.22Q684.03-25.22 682.88-24.64L682.88-24.64L682.88-24.64Q681.73-24.06 680.83-23.07L680.83-23.07L680.83-23.07Q679.94-22.08 679.36-20.67L679.36-20.67L679.36-20.67Q678.78-19.26 678.78-17.54L678.78-17.54L678.78 0L671.49 0L671.49-16.13L671.49-16.13Q671.49-19.97 670.98-22.56L670.98-22.56L670.98-22.56Q670.46-25.15 669.89-26.75L669.89-26.75L669.89-26.75Q669.18-28.61 668.35-29.76L668.35-29.76L674.11-32.06L674.11-32.06Q674.69-31.36 675.33-30.34L675.33-30.34L675.33-30.34Q675.84-29.44 676.35-28.22L676.35-28.22L676.35-28.22Q676.86-27.01 677.18-25.34L677.18-25.34L677.18-25.34Q678.46-29.06 680.90-30.69L680.90-30.69L680.90-30.69Q683.33-32.32 686.40-32.32L686.40-32.32L686.40-32.32Q687.87-32.32 689.15-31.97L689.15-31.97L689.15-31.97Q690.43-31.62 690.37-31.62L690.37-31.62L688.32-24.51L688.32-24.51Q688.38-24.51 687.58-24.86L687.58-24.86L687.58-24.86Q686.78-25.22 685.18-25.22L685.18-25.22ZM701.25 0.26L701.25 0.26Q697.86 0.26 696.06-1.76L696.06-1.76L696.06-1.76Q694.27-3.78 694.27-6.98L694.27-6.98L694.27-31.87L701.57-31.87L701.57-7.62L701.57-7.62Q701.57-6.14 702.02-5.63L702.02-5.63L702.02-5.63Q702.46-5.12 703.36-5.12L703.36-5.12L703.36-5.12Q703.62-5.12 703.90-5.12L703.90-5.12L703.90-5.12Q704.19-5.12 704.45-5.18L704.45-5.18L704.45-5.18Q704.70-5.18 705.02-5.25L705.02-5.25L705.79-0.64L705.79-0.64Q705.34-0.38 704.64-0.19L704.64-0.19L704.64-0.19Q704.06 0 703.20 0.13L703.20 0.13L703.20 0.13Q702.34 0.26 701.25 0.26L701.25 0.26ZM698.05-46.08L698.05-46.08Q700.10-46.08 701.18-44.86L701.18-44.86L701.18-44.86Q702.27-43.65 702.27-41.73L702.27-41.73L702.27-41.73Q702.27-39.81 701.15-38.53L701.15-38.53L701.15-38.53Q700.03-37.25 697.86-37.25L697.86-37.25L697.86-37.25Q695.81-37.25 694.69-38.50L694.69-38.50L694.69-38.50Q693.57-39.74 693.57-41.54L693.57-41.54L693.57-41.54Q693.57-43.52 694.69-44.80L694.69-44.80L694.69-44.80Q695.81-46.08 698.05-46.08L698.05-46.08Z" fill="#423a8e"></path></g></g><style>text {
  font-size: 64px;
  font-family: Arial Black;
  dominant-baseline: central;
  text-anchor: middle;
}</style></svg>